# xmcd
#
# Track frame offsets:
#	150
#	12644
#	23432
#	36067
#	51063
#	62401
#	76102
#	87037
#	97309
#	106688
#
# Disc length: 1551 seconds
#
# Revision: 1
# Processed by: cddbd v1.5.2PL0 Copyright (c) Steve Scherf et al.
# Submitted via: audiograbber 1.83.01
#
DISCID=68060d0a
DTITLE=Porter Wagoner - Country Hit Parade
DYEAR=2005
DGENRE=Country
TTITLE0=A Satisfied Mind
TTITLE1=Green, Green Grass Of Home
TTITLE2=The Carroll Country Accident
TTITLE3=The Cold Hard Facts Of Life
TTITLE4=Misery Loves Company
TTITLE5=Skid Row Joe
TTITLE6=Eat, Drink, And Be Merry (Tomorrow You'll Cry)
TTITLE7=Big Wind
TTITLE8=The Pain Of Loveing You (with Dolly Parton)
TTITLE9=Sorrow On The Rocks
EXTD=
EXTT0=
EXTT1=
EXTT2=
EXTT3=
EXTT4=
EXTT5=
EXTT6=
EXTT7=
EXTT8=
EXTT9=
PLAYORDER=
